# xmcd
#
# Track frame offsets: 
#        150
#        18525
#        38756
#        56381
#        69018
#        82161
#        100479
#        112872
#        126690
#        146977
#        159014
#        177089
#        202176
#        215469
#
# Disc length: 3159 seconds
#
# Revision: 0
# Processed by: cddbd v1.5.2PL0 Copyright (c) Steve Scherf et al.
# Submitted via: ExactAudioCopy v0.99pb4
#
DISCID=c60c550e
DTITLE=Тризубий Стас - Я повертаюся. Vol. 3
DYEAR=2004
DGENRE=Art Song
TTITLE0=У Львові дощ
TTITLE1=Мете...
TTITLE2=Кохання не покидає мене
TTITLE3=Рідні буряки
TTITLE4=Жіноче алегро
TTITLE5=Іспанія, Іспанія
TTITLE6=Лобода на городі
TTITLE7=Львівська кава
TTITLE8=Under The Table
TTITLE9=Верблюди
TTITLE10=Аргентина
TTITLE11=Про слонів
TTITLE12=Мерседес-Бенц
TTITLE13=А люди сапають
EXTD=
EXTT0=
EXTT1=
EXTT2=
EXTT3=
EXTT4=
EXTT5=
EXTT6=
EXTT7=
EXTT8=
EXTT9=
EXTT10=
EXTT11=
EXTT12=
EXTT13=
PLAYORDER=
